<svg t="1715152449669" class="icon" viewBox="0 0 1024 1024" version="1.1" xmlns="http://www.w3.org/2000/svg" p-id="2600" width="200" height="200"><path d="M231.570286 841.142857v-731.428571q0-3.657143 0.731428-7.168t2.048-6.802286q1.389714-3.364571 3.364572-6.363429 2.048-2.925714 4.534857-5.558857 2.56-2.486857 5.558857-4.534857 2.998857-1.974857 6.363429-3.364571 3.291429-1.389714 6.802285-2.048 3.584-0.731429 7.168-0.731429 3.657143 0 7.168 0.731429t6.802286 2.048q3.364571 1.389714 6.363429 3.364571 2.925714 2.048 5.558857 4.534857 2.486857 2.56 4.534857 5.558857 1.974857 2.998857 3.364571 6.363429 1.389714 3.291429 2.048 6.802286 0.731429 3.584 0.731429 7.168v64h262.070857l149.357714 64h149.357715c23.552 0 42.642286 19.090286 42.642285 42.642285v362.715429a42.642286 42.642286 0 0 1-42.642285 42.642286H716.068571L566.784 621.714286H304.713143v219.428571h48.786286q3.657143 0 7.168 0.731429t6.875428 2.048q3.291429 1.389714 6.290286 3.364571 2.998857 2.048 5.558857 4.534857 2.56 2.56 4.534857 5.558857 1.974857 2.998857 3.364572 6.363429 1.462857 3.291429 2.121142 6.875429 0.731429 3.510857 0.731429 7.094857 0 3.657143-0.731429 7.168t-2.121142 6.802285q-1.389714 3.364571-3.364572 6.363429-1.974857 2.925714-4.534857 5.558857-2.56 2.486857-5.558857 4.534857-2.925714 1.974857-6.290286 3.364572-3.364571 1.389714-6.875428 2.048-3.510857 0.731429-7.168 0.731428H182.857143q-3.657143 0-7.168-0.731428t-6.802286-2.048q-3.364571-1.389714-6.363428-3.364572-2.925714-2.048-5.558858-4.534857-2.486857-2.56-4.534857-5.558857-1.974857-2.998857-3.364571-6.363429-1.389714-3.291429-2.048-6.875428Q146.285714 881.371429 146.285714 877.714286q0-3.657143 0.731429-7.168t2.048-6.802286q1.389714-3.364571 3.364571-6.363429 2.048-2.925714 4.534857-5.558857 2.56-2.486857 5.558858-4.534857 2.998857-1.974857 6.363428-3.364571 3.291429-1.389714 6.802286-2.048 3.584-0.731429 7.168-0.731429h48.713143z" fill="#bfbfbf" p-id="2601"></path></svg>