<svg t="1716193273126" class="icon" viewBox="0 0 1024 1024" version="1.1" xmlns="http://www.w3.org/2000/svg" p-id="1833" width="200" height="200"><path d="M512 976c255.456 0 463.264-207.84 463.264-463.264C975.264 257.28 767.456 49.44 512 49.44c-255.456 0-463.296 207.84-463.296 463.296C48.704 768.16 256.512 976 512 976z m0-887.84c234.112 0 424.576 190.464 424.576 424.576 0 234.08-190.464 424.576-424.576 424.576-234.112 0-424.576-190.496-424.576-424.576C87.424 278.624 277.888 88.16 512 88.16z" fill="#bfbfbf" p-id="1834"></path><path d="M746.656 284.576c129.824 126.048 130.496 330.304 0.64 456.32-129.792 126.08-340.8 126.08-470.592 0-129.856-126.016-129.248-330.272 0.64-456.32 129.792-126.048 339.52-126.048 469.312 0z m-111.648 210.368h-63.136l84.096-157.12h-82.24l-54.464 107.648c-6.272 12.96-11.04 21.472-14.464 32.896-2.88-10.56-7.616-19.008-14.432-32.896l-53.376-107.68h-82.24l83.008 157.12h-54.496v63.776h89.6v25.6h-89.6v62.816h89.6v68h72.192v-68h89.952V584.32h-89.92v-25.6h89.92v-63.744z" fill="#bfbfbf" p-id="1835"></path></svg>