<svg t="1716175613507" class="icon" viewBox="0 0 1024 1024" version="1.1" xmlns="http://www.w3.org/2000/svg" p-id="1607" width="200" height="200"><path d="M218.762985 292.448551c0 110.098278 89.311494 199.409772 199.409772 199.409772S617.725885 402.546829 617.725885 292.448551 528.414392 93.038779 418.172757 93.038779 218.762985 182.206916 218.762985 292.448551z" p-id="1608" fill="#bfbfbf"></path><path d="M513.791964 503.183536H357.102618C175.469131 503.183536 28.384712 650.267955 28.384712 831.758085c0 54.762425 44.440711 99.203136 99.346493 99.346493h596.652387c43.00714 0 77.98628-34.835783 77.986281-77.98628v-61.50021c-0.143357-159.126417-129.308134-288.434551-288.577909-288.434552z m129.451491-212.311913c0.143357 50.605068-18.062999 99.633207-51.035139 138.196276-3.727285 4.300714-3.583928 10.751785 0.430071 14.909141 58.346353 60.353353 154.395632 61.930281 214.748985 3.727286 29.961641-28.958141 46.591068-68.811424 46.304354-110.384992-0.573429-82.430351-67.664567-149.951561-150.094918-150.811704-22.50707-0.286714-44.727425 4.444071-65.084138 13.905642-7.0245 3.153857-10.465071 11.181856-7.884643 18.49307 8.458071 22.937141 12.758785 47.307854 12.615428 71.965281z" p-id="1609" fill="#bfbfbf"></path><path d="M729.114378 514.938821H685.247095c-4.874143 0-8.744785 3.870643-8.888142 8.744785 0 3.153857 1.576928 6.021 4.300714 7.597928C771.261375 584.897102 826.597228 682.236595 826.597228 787.460731v63.363853c0 16.48607-5.0175 32.542069-14.47907 46.017639-2.723786 3.870643-1.863643 9.318214 2.006999 12.185356 1.433571 1.0035 3.153857 1.576928 5.0175 1.576929h104.50735c39.709926 0 71.965281-32.255355 71.965281-71.965281v-56.769424c0-147.51449-119.416492-266.930981-266.50091-266.930982z" p-id="1610" fill="#bfbfbf"></path></svg>