<?xml version="1.0" standalone="no"?><!DOCTYPE svg PUBLIC "-//W3C//DTD SVG 1.1//EN" "http://www.w3.org/Graphics/SVG/1.1/DTD/svg11.dtd"><svg t="1719127130471" class="icon" viewBox="0 0 1024 1024" version="1.1" xmlns="http://www.w3.org/2000/svg" p-id="6097" width="48" height="48" xmlns:xlink="http://www.w3.org/1999/xlink"><path d="M512 917.333333a308.458667 308.458667 0 0 1-86.058667-9.152c-59.349333-17.301333-177.642667-4.373333-272.576 14.485334 0 0-8.192 1.344-8.704 1.344a42.282667 42.282667 0 0 1-41.408-52.522667c20.245333-91.733333 28.053333-200.746667 12.330667-274.581333A405.333333 405.333333 0 1 1 512 917.333333z m-172.992-277.333333h213.333333a32 32 0 1 0 0-64h-213.333333a32 32 0 0 0 0 64z m341.333333-234.666667h-341.333333a32 32 0 0 0 0 64h341.333333a32 32 0 1 0 0-64z" fill="#FCBD3F" p-id="6098"></path></svg>