<svg t="1715583549804" class="icon" viewBox="0 0 1025 1024" version="1.1" xmlns="http://www.w3.org/2000/svg" p-id="8722" width="200" height="200"><path d="M512.901091 510.738472m-510.738472 0a510.738472 510.738472 0 1 0 1021.476945 0 510.738472 510.738472 0 1 0-1021.476945 0Z" fill="#f6723b" p-id="8723" data-spm-anchor-id="a313x.search_index.0.i10.33ef3a81Shx27z" class="selected"></path><path d="M568.408307 410.176698c-22.707497 0-42.171067 14.777895-50.821542 36.043647-0.720873 2.162619-2.523055 3.964801-4.685674 3.964801s-3.964801-1.441746-4.685674-3.964801c-8.650475-21.265751-28.114044-36.043647-50.821542-36.043647-30.6371 0-55.507216 27.032735-55.507215 60.553327 0 19.463569 8.290039 33.520591 18.021823 48.298486 25.590989 40.008448 92.992608 92.271735 92.992608 92.271735s67.762056-52.263288 92.992608-92.271735c9.371348-14.777895 18.021823-28.834917 18.021824-48.298486 0-33.160155-24.870116-60.553326-55.507216-60.553327z" fill="#FFFFFF" p-id="8724"></path><path d="M733.848645 308.894051c-12.25484-12.25484-29.55579-20.184442-48.298487-20.184442H340.252024c-18.742696 0-35.68321 7.569166-48.298487 20.184442-12.25484 12.25484-20.184442 29.55579-20.184442 48.298487v307.452305c0 18.742696 7.569166 35.68321 20.184442 48.298487 12.25484 12.25484 29.55579 20.184442 48.298487 20.184442h345.298134c18.742696 0 35.68321-7.569166 48.298487-20.184442 12.25484-12.25484 20.184442-29.55579 20.184442-48.298487V357.192538c-0.360436-18.742696-7.929602-35.68321-20.184442-48.298487z m-114.618796 220.226681c-26.672298 42.171067-94.073918 94.434354-96.95741 96.596973-2.883492 2.162619-6.12742 3.243928-9.010911 3.243928s-6.487856-1.081309-9.010912-3.243928c-2.883492-2.162619-70.285111-54.425906-96.957409-96.596973-9.371348-14.417459-20.544879-32.439282-20.544879-58.030271 0-42.891939 32.078845-78.214713 71.36642-78.214713 21.986624 0 42.171067 10.813094 55.507216 29.195354 13.336149-18.021823 33.520591-29.195354 55.507216-29.195354 39.287575 0 71.36642 34.962337 71.36642 78.214713-0.720873 25.590989-12.25484 43.612812-21.265751 58.030271z" fill="#FFFFFF" p-id="8725"></path></svg>