<?xml version="1.0" standalone="no"?><!DOCTYPE svg PUBLIC "-//W3C//DTD SVG 1.1//EN" "http://www.w3.org/Graphics/SVG/1.1/DTD/svg11.dtd"><svg t="1718674897362" class="icon" viewBox="0 0 1024 1024" version="1.1" xmlns="http://www.w3.org/2000/svg" p-id="10764" id="mx_n_1718674897363" width="24" height="24" xmlns:xlink="http://www.w3.org/1999/xlink"><path d="M690.086957 598.950957h-22.26087V402.921739c0-82.120348-69.765565-148.791652-155.826087-148.791652s-155.826087 66.649043-155.826087 148.791652v196.051478h-22.26087c-24.576 0-44.521739 20.079304-44.521739 44.922435 0 24.776348 19.945739 44.877913 44.521739 44.877913h356.173914c24.576 0 44.521739-20.079304 44.521739-44.877913a44.744348 44.744348 0 0 0-44.521739-44.944695z" fill="#f49729" p-id="10765"></path><path d="M512 0C229.220174 0 0 229.264696 0 512c0 282.779826 229.220174 512 512 512s512-229.220174 512-512C1024 229.264696 794.779826 0 512 0z m0 845.913043c-49.174261 0-89.043478-40.225391-89.043478-89.778086h44.521739c0 24.731826 19.945739 44.877913 44.521739 44.877913s44.521739-20.123826 44.521739-44.877913h44.521739C601.043478 805.687652 561.174261 845.913043 512 845.913043z m178.086957-112.261565H333.913043c-49.174261 0-89.043478-40.225391-89.043478-89.778087a89.510957 89.510957 0 0 1 66.782609-86.661565V402.921739c0-91.247304 66.960696-167.424 156.493913-186.523826A44.521739 44.521739 0 0 1 512 178.086957c22.349913 0 40.670609 16.673391 43.876174 38.310956C645.38713 235.497739 712.347826 311.652174 712.347826 402.921739v154.312348a89.488696 89.488696 0 0 1 66.782609 86.661565c0 49.530435-39.869217 89.755826-89.043478 89.755826z" fill="#f49729" p-id="10766"></path></svg>