<?xml version="1.0" standalone="no"?><!DOCTYPE svg PUBLIC "-//W3C//DTD SVG 1.1//EN" "http://www.w3.org/Graphics/SVG/1.1/DTD/svg11.dtd"><svg t="1718675028271" class="icon" viewBox="0 0 1024 1024" version="1.1" xmlns="http://www.w3.org/2000/svg" p-id="12621" xmlns:xlink="http://www.w3.org/1999/xlink" width="24" height="24"><path d="M512 0a512 512 0 1 0 512 512A512 512 0 0 0 512 0z m-30.208 239.616l207.9744 181.6064H509.7472a26.5216 26.5216 0 0 1-27.9552-26.368zM354.56 768.8704H301.7728a27.8016 27.8016 0 0 1-27.9552-27.9552V267.5712a27.8016 27.8016 0 0 1 27.9552-27.9552h152.1152v155.1872a55.3472 55.3472 0 0 0 55.8592 54.3232V450.56h170.7008l-248.32 239.1552z m88.4736 15.36l20.1728-80.6912 63.6416 60.5184z m245.248-45.0048a27.8016 27.8016 0 0 1-27.9552 27.9552v-1.536h-96.256l124.16-119.5008z m-144.3328 9.3184L480.256 688.1792l189.44-181.6064 63.6416 60.5184z m252.9792-243.6608l-46.5408 45.0048-63.6928-60.416 46.5408-45.0048a23.6032 23.6032 0 0 1 31.0272 0l31.0272 31.0272a23.5008 23.5008 0 0 1 1.5872 29.5424z" p-id="12622" fill="#1296db"></path></svg>