<svg t="1716792511529" class="icon" viewBox="0 0 1024 1024" version="1.1" xmlns="http://www.w3.org/2000/svg" p-id="5103" width="200" height="200"><path d="M511.9872 0c-282.7648 0-512 229.2352-512 512s229.2352 512 512 512 512-229.2352 512-512-229.2352-512-512-512zM368.7936 724.9792c0 10.3552-8.8704 18.7648-19.8016 18.7648h-79.2064c-10.9312 0-19.8016-8.4096-19.8016-18.7648V424.6528c0-10.368 8.8704-18.7648 19.8016-18.7648h79.2064c10.9312 0 19.8016 8.4096 19.8016 18.7648v300.3264z m198.016 0c0 10.3552-8.8704 18.7648-19.8016 18.7648h-79.2064c-10.9312 0-19.8016-8.4096-19.8016-18.7648V312.0384c0-10.368 8.8704-18.7776 19.8016-18.7776h79.2064c10.9312 0 19.8016 8.4096 19.8016 18.7776v412.9408z m198.016 0c0 10.3552-8.8704 18.7648-19.8016 18.7648h-79.2064c-10.9312 0-19.8016-8.4096-19.8016-18.7648V537.28c0-10.368 8.8704-18.7648 19.8016-18.7648h79.2064c10.9312 0 19.8016 8.4096 19.8016 18.7648v187.6992z" fill="#E4D360" p-id="5104"></path></svg>